<?xml version="1.0" standalone="no"?>
<!DOCTYPE svg PUBLIC "-//W3C//DTD SVG 20010904//EN"
 "http://www.w3.org/TR/2001/REC-SVG-20010904/DTD/svg10.dtd">
<svg version="1.0" xmlns="http://www.w3.org/2000/svg"
 width="512.000000pt" height="512.000000pt" viewBox="0 0 512.000000 512.000000"
 preserveAspectRatio="xMidYMid meet">
<metadata>
Created by potrace 1.12, written by Peter Selinger 2001-2015
</metadata>
<g transform="translate(0.000000,512.000000) scale(0.100000,-0.100000)"
fill="#000000" stroke="none">
<path d="M1020 4943 c-99 -34 -170 -107 -204 -206 -14 -40 -16 -100 -16 -391
l0 -343 -89 -5 c-162 -10 -279 -86 -349 -226 l-37 -76 0 -1616 0 -1616 37 -76
c45 -91 103 -147 196 -191 l67 -32 1215 0 1215 0 67 32 c93 44 151 100 196
191 l37 76 0 1616 0 1616 -37 76 c-70 140 -187 216 -348 226 l-89 5 -3 361 -3
361 -25 50 c-31 64 -91 124 -155 155 l-50 25 -790 2 c-699 2 -795 0 -835 -14z
m1520 -323 c20 -20 20 -33 20 -560 l0 -540 -720 0 -720 0 0 540 c0 527 0 540
20 560 20 20 33 20 700 20 667 0 680 0 700 -20z m320 -1600 c19 -19 20 -33 20
-540 0 -507 -1 -521 -20 -540 -20 -20 -33 -20 -1020 -20 -987 0 -1000 0 -1020
20 -19 19 -20 33 -20 540 0 507 1 521 20 540 20 20 33 20 1020 20 987 0 1000
0 1020 -20z m-1600 -1440 c18 -18 20 -33 20 -140 0 -169 14 -160 -240 -160
-254 0 -240 -9 -240 160 0 169 -14 160 240 160 187 0 201 -1 220 -20z m800 0
c18 -18 20 -33 20 -140 0 -169 14 -160 -240 -160 -254 0 -240 -9 -240 160 0
169 -14 160 240 160 187 0 201 -1 220 -20z m800 0 c18 -18 20 -33 20 -140 0
-169 14 -160 -240 -160 -254 0 -240 -9 -240 160 0 169 -14 160 240 160 187 0
201 -1 220 -20z m-1600 -640 c18 -18 20 -33 20 -140 0 -169 14 -160 -240 -160
-254 0 -240 -9 -240 160 0 169 -14 160 240 160 187 0 201 -1 220 -20z m800 0
c18 -18 20 -33 20 -140 0 -169 14 -160 -240 -160 -254 0 -240 -9 -240 160 0
169 -14 160 240 160 187 0 201 -1 220 -20z m800 0 c18 -18 20 -33 20 -140 0
-169 14 -160 -240 -160 -254 0 -240 -9 -240 160 0 169 -14 160 240 160 187 0
201 -1 220 -20z"/>
<path d="M1292 4308 c-7 -7 -12 -37 -12 -68 0 -31 5 -61 12 -68 17 -17 1079
-17 1096 0 7 7 12 37 12 68 0 31 -5 61 -12 68 -17 17 -1079 17 -1096 0z"/>
<path d="M1292 3988 c-7 -7 -12 -37 -12 -68 0 -31 5 -61 12 -68 17 -17 1079
-17 1096 0 7 7 12 37 12 68 0 31 -5 61 -12 68 -17 17 -1079 17 -1096 0z"/>
<path d="M4113 3825 c-146 -32 -295 -147 -367 -283 -66 -128 -66 -116 -66
-1020 0 -789 -1 -814 -20 -851 -20 -40 -65 -74 -112 -85 l-28 -6 0 -150 0
-150 28 0 c15 0 54 7 85 15 159 41 274 145 340 308 22 51 22 61 27 907 l5 855
25 45 c52 92 158 141 260 119 64 -14 127 -61 160 -119 23 -42 25 -56 28 -206
l4 -161 -36 -7 c-44 -8 -94 -50 -112 -93 -10 -23 -14 -82 -14 -208 l0 -175
320 0 320 0 0 175 c0 126 -4 185 -14 208 -17 43 -68 85 -111 93 l-35 6 0 147
c0 175 -15 255 -66 353 -117 222 -371 337 -621 283z"/>
<path d="M4320 1547 c0 -696 3 -862 14 -900 15 -49 226 -427 259 -465 26 -28
68 -28 94 1 33 37 244 415 259 464 11 38 14 204 14 900 l0 853 -320 0 -320 0
0 -853z"/>
</g>
</svg>
