<?xml version="1.0" standalone="no"?>
<!DOCTYPE svg PUBLIC "-//W3C//DTD SVG 20010904//EN"
 "http://www.w3.org/TR/2001/REC-SVG-20010904/DTD/svg10.dtd">
<svg version="1.0" xmlns="http://www.w3.org/2000/svg"
 width="512.000000pt" height="512.000000pt" viewBox="0 0 512.000000 512.000000"
 preserveAspectRatio="xMidYMid meet">
<metadata>
Created by potrace 1.12, written by Peter Selinger 2001-2015
</metadata>
<g transform="translate(0.000000,512.000000) scale(0.100000,-0.100000)"
fill="#000000" stroke="none">
<path d="M1321 4944 c-253 -68 -410 -331 -346 -579 67 -256 329 -415 580 -350
253 66 410 319 351 568 l-13 57 149 0 c145 0 150 1 173 25 33 32 33 78 0 110
-24 25 -25 25 -221 25 l-196 0 -46 41 c-117 103 -284 143 -431 103z"/>
<path d="M1105 3826 c-91 -29 -163 -92 -197 -171 -19 -42 -318 -1159 -337
-1255 -6 -30 -25 -263 -42 -517 l-31 -462 -164 -393 c-185 -441 -192 -466
-154 -556 27 -62 80 -113 144 -137 94 -36 218 3 272 85 28 42 369 851 378 897
3 15 15 141 26 278 11 138 23 270 26 293 l5 44 154 -254 153 -253 51 -464 c58
-519 61 -532 143 -591 148 -108 356 -23 383 157 4 22 -20 261 -55 557 l-61
520 -206 369 -206 369 11 51 c7 29 44 184 84 345 l72 293 52 -103 c29 -57 65
-115 81 -129 55 -52 489 -316 529 -322 55 -9 117 10 163 50 33 28 47 34 78 31
l38 -3 183 -665 c101 -365 184 -666 186 -667 1 -1 33 9 72 22 38 13 95 27 127
31 31 4 57 7 57 8 0 0 -94 326 -209 724 -129 446 -216 731 -228 744 -36 40
-67 48 -181 48 -80 0 -111 3 -115 13 -3 7 -99 73 -213 146 l-209 133 -138 303
c-87 190 -152 319 -173 344 -19 22 -60 52 -92 68 -55 27 -62 28 -237 30 -126
2 -192 -1 -220 -11z"/>
<path d="M4065 2831 c-93 -26 -175 -50 -181 -52 -7 -3 12 -79 52 -213 35 -115
62 -211 60 -213 -2 -2 -46 16 -99 41 l-96 44 -58 -89 c-31 -49 -60 -89 -63
-89 -3 0 -32 90 -65 201 -33 110 -63 205 -66 210 -6 11 -340 -81 -390 -107
-64 -32 -119 -127 -119 -204 0 -39 295 -1071 321 -1123 37 -71 140 -124 224
-114 77 9 1079 307 1117 332 47 31 87 100 95 162 5 43 -13 115 -142 569 -81
285 -154 536 -162 557 -19 47 -90 110 -141 125 -63 19 -106 13 -287 -37z"/>
<path d="M4215 1103 c-313 -91 -572 -167 -574 -169 -2 -1 4 -25 13 -51 9 -26
20 -85 23 -130 3 -46 10 -83 15 -83 5 0 275 77 601 171 550 158 594 173 625
203 85 83 25 227 -93 225 -22 0 -296 -75 -610 -166z"/>
<path d="M3020 1107 c-193 -56 -312 -223 -297 -420 3 -51 13 -86 41 -141 43
-88 102 -146 194 -189 61 -29 76 -32 162 -32 86 0 101 3 162 32 93 44 151 100
196 191 35 72 37 81 37 172 0 91 -2 100 -37 172 -68 136 -191 219 -337 225
-43 1 -96 -3 -121 -10z m163 -241 c103 -43 128 -177 48 -257 -65 -65 -157 -65
-222 0 -124 123 13 325 174 257z"/>
</g>
</svg>
